# xmcd
#
# Track frame offsets:
#	183
#	13793
#	25290
#	37208
#	45108
#	54423
#	70263
#	81253
#	92215
#	104550
#	117953
#	130480
#	142630
#	153818
#	164710
#	182535
#	200343
#	210988
#	221218
#	235890
#
# Disc length: 3302
#
# Revision: 2
# Processed by: cddbd v1.5.1PL0 Copyright (c) Steve Scherf et al.
# Submitted via: audiograbber 1.80
# Normalized: r1:DSETVAR1
#
DISCID=170ce414
DTITLE=Various Artist - 100 x Country Gold - Vol. 1
DYEAR=1900
DGENRE=
TTITLE0=George Jones - Just someone I used to know
TTITLE1=Willie Nelson - Night life
TTITLE2=Kitty Wells - It wasn't god who made honky tonks angels
TTITLE3=Roger Miller - Dang me
TTITLE4=Willie Nelson - Right from wrong
TTITLE5=Ernest Tubb and Johnny Cash - Soldier's last letter
TTITLE6=George Jones - Tender Years
TTITLE7=Roger Miller - King of the road
TTITLE8=Kitty Wells - Password
TTITLE9=Moe Bandy - Bandy the rodeo clown
TTITLE10=Ernest Tubb and Willie Nelson - You nearly lose your mind
TTITLE11=Jean Shepard - Slippin away
TTITLE12=Waylon Jennings - Sally was a good old girl
TTITLE13=Patsy Cline - That's how much I love you
TTITLE14=Johnny Paycheck - In memory of a memory
TTITLE15=Lynn Anderson - Go tell it to the mountains
TTITLE16=Waylon Jennings - Burning memories
TTITLE17=Patsy Cline - Pick me up on your way down
TTITLE18=Johnny Paycheck - I'm the only hell
TTITLE19=Stonewall Jackson - Waterloo
EXTD=
EXTT0=
EXTT1=
EXTT2=
EXTT3=
EXTT4=
EXTT5=
EXTT6=
EXTT7=
EXTT8=
EXTT9=
EXTT10=
EXTT11=
EXTT12=
EXTT13=
EXTT14=
EXTT15=
EXTT16=
EXTT17=
EXTT18=
EXTT19=
PLAYORDER=
